<?xml version="1.0" encoding="UTF-8"?>
<svg id="Layer_1" data-name="Layer 1" xmlns="http://www.w3.org/2000/svg" viewBox="0 0 1527.5 422.44">
  <defs>
    <style>
      .cls-1 {
        fill: #fff;
      }

      .cls-1, .cls-2, .cls-3, .cls-4 {
        stroke-miterlimit: 10;
      }

      .cls-1, .cls-3, .cls-4 {
        stroke: #010101;
        stroke-width: .77px;
      }

      .cls-5 {
        opacity: .9;
      }

      .cls-6 {
        fill: #e4d1b3;
      }

      .cls-6, .cls-7, .cls-8, .cls-9 {
        stroke-width: 0px;
      }

      .cls-2 {
        fill: #336733;
        opacity: .3;
        stroke: #336733;
        stroke-width: 5px;
      }

      .cls-10 {
        opacity: .4;
      }

      .cls-7 {
        opacity: .8;
      }

      .cls-7, .cls-8 {
        fill: #933;
      }

      .cls-3 {
        fill: #e21f1d;
      }

      .cls-9 {
        fill: #c96;
      }

      .cls-4 {
        fill: #e2e1e1;
      }
    </style>
  </defs>
  <path class="cls-6" d="m1258.67,0c.8.98,2.02,1.64,3.67,1.66,3.25.03,6.27-.71,9.46-1.15,3.42-.47,6.9-.32,10.35-.29,3.95.03,7.97.14,11.96-.08.83,1.13,2.13,1.95,3.83,2.03,25.96,1.23,52.08-.44,78.05-.5,13.15-.03,26.18-.44,39.31-1.01,6.23-.27,12.56.02,18.8.14,2.86.05,5.74.41,8.59.14,1.82-.17,3.57-.63,5.36-.94h79.44v234.08c-.56,29.76-7.05,59.34-4.15,89.14,1.33,13.69,2.94,27.28,4.15,40.88v35.91h-62.81c-13.74-1.24-27.58-.09-41.34-.09-11.99,0-23.99-.08-35.99.09h-37.86c-11.24-.14-22.48-.09-33.74-.09-6.05-1.19-12.82-.46-19.16.09h-170.58c-11.07-.27-22.15-.37-33.23-.38-.68,0-1.31.14-1.86.38h-186.02c-3.87-.23-7.74-.43-11.62-.56-18.17-.62-37.42-1.85-55.87.56H0V0h1258.67Z"/>
  <g class="cls-10">
    <g>
      <g>
        <g>
          <path class="cls-2" d="m26.84,2.84v394.23V2.84Z"/>
          <path class="cls-2" d="m66.55,2.84v394.23V2.84Z"/>
        </g>
        <g>
          <path class="cls-2" d="m113.3,2.84v394.23V2.84Z"/>
          <path class="cls-2" d="m153.01,2.84v394.23V2.84Z"/>
        </g>
      </g>
      <g>
        <g>
          <path class="cls-2" d="m194.93,3.32v394.23V3.32Z"/>
          <path class="cls-2" d="m234.63,3.32v394.23V3.32Z"/>
        </g>
        <g>
          <path class="cls-2" d="m281.39,3.32v394.23V3.32Z"/>
          <path class="cls-2" d="m321.1,3.32v394.23V3.32Z"/>
        </g>
      </g>
      <g>
        <g>
          <path class="cls-2" d="m358.42,3.32v394.23V3.32Z"/>
          <path class="cls-2" d="m398.13,3.32c-.07,130.6-.07,260.7,0,392.15"/>
        </g>
        <g>
          <path class="cls-2" d="m444.89,3.32v394.23V3.32Z"/>
          <path class="cls-2" d="m484.6,3.32v394.23V3.32Z"/>
        </g>
      </g>
    </g>
    <g>
      <g>
        <g>
          <path class="cls-2" d="m542.82,3.56c-.27,131.35-.27,261.44,0,392.63"/>
          <path class="cls-2" d="m582.53,3.56c.16,131.35.16,263.41,0,394.11"/>
        </g>
        <g>
          <path class="cls-2" d="m629.29,3.56c-.44,130.36-.44,261.44,0,391.92"/>
          <path class="cls-2" d="m669,3.56c0,130.36,0,260.46,0,390.45"/>
        </g>
      </g>
      <g>
        <g>
          <path class="cls-2" d="m710.91,4.05v394.23V4.05Z"/>
          <path class="cls-2" d="m750.62,4.05v394.23V4.05Z"/>
        </g>
        <g>
          <path class="cls-2" d="m797.38,4.05v394.23V4.05Z"/>
          <path class="cls-2" d="m837.09,4.05v394.23V4.05Z"/>
        </g>
      </g>
      <g>
        <g>
          <path class="cls-2" d="m874.41,4.05v394.23V4.05Z"/>
          <path class="cls-2" d="m914.12,4.05v394.23V4.05Z"/>
        </g>
        <g>
          <path class="cls-2" d="m960.88,4.05v394.23V4.05Z"/>
          <path class="cls-2" d="m1000.58,4.05v394.23V4.05Z"/>
        </g>
      </g>
    </g>
    <g>
      <g>
        <g>
          <path class="cls-2" d="m1048,2.6v394.23V2.6Z"/>
          <path class="cls-2" d="m1087.71,2.6v394.23V2.6Z"/>
        </g>
        <g>
          <path class="cls-2" d="m1134.46,2.6v394.23V2.6Z"/>
          <path class="cls-2" d="m1174.17,2.6v394.23V2.6Z"/>
        </g>
      </g>
      <g>
        <g>
          <path class="cls-2" d="m1216.09,3.08v394.23V3.08Z"/>
          <path class="cls-2" d="m1255.8,3.08v394.23V3.08Z"/>
        </g>
        <g>
          <path class="cls-2" d="m1302.55,3.08v394.23V3.08Z"/>
          <path class="cls-2" d="m1342.26,3.08v394.23V3.08Z"/>
        </g>
      </g>
      <g>
        <g>
          <path class="cls-2" d="m1379.59,3.08v394.23V3.08Z"/>
          <path class="cls-2" d="m1419.29,3.08v394.23V3.08Z"/>
        </g>
        <g>
          <path class="cls-2" d="m1466.05,3.08v394.23V3.08Z"/>
          <path class="cls-2" d="m1505.76,3.08v394.23V3.08Z"/>
        </g>
      </g>
    </g>
    <g>
      <g>
        <g>
          <path class="cls-2" d="m705.38,398.04c273.66.02,546.59.02,820.26,0"/>
          <path class="cls-2" d="m1.26,398.04c125.01.02,248.95.02,373.29,0,.05,0,.09,0,.14,0H1.26Z"/>
          <path class="cls-2" d="m1.26,363.84h1524.38H1.26Z"/>
        </g>
        <g>
          <path class="cls-2" d="m3.34,323.57c508.11-.42,1014.83-.42,1522.29,0"/>
          <path class="cls-2" d="m3.34,289.38c508.11.27,1014.83.27,1522.29,0"/>
        </g>
      </g>
      <g>
        <g>
          <path class="cls-2" d="m3.12,253.28h1524.38S3.12,253.28,3.12,253.28Z"/>
          <path class="cls-2" d="m3.12,219.08h1524.38H3.12Z"/>
        </g>
        <g>
          <path class="cls-2" d="m3.12,178.81h1524.38S3.12,178.81,3.12,178.81Z"/>
          <path class="cls-2" d="m3.12,144.61h1524.38H3.12Z"/>
        </g>
      </g>
      <g>
        <g>
          <path class="cls-2" d="m3.12,112.47h1524.38H3.12Z"/>
          <path class="cls-2" d="m3.12,78.27h1524.38H3.12Z"/>
        </g>
        <g>
          <path class="cls-2" d="m3.12,38h1524.38S3.12,38,3.12,38Z"/>
          <path class="cls-2" d="m3.12,3.8h1524.38S3.12,3.8,3.12,3.8Z"/>
        </g>
      </g>
    </g>
  </g>
  <g>
    <rect class="cls-9" x="686.23" y="37.49" width="841.27" height="305.81"/>
    <polygon class="cls-9" points="915.93 341.5 604.65 342.4 441.8 190.11 590.23 36.92 901.52 36.02 1064.37 188.31 915.93 341.5"/>
  </g>
  <g>
    <path class="cls-7" d="m822.99,250.49h-4.83v-17.82h4.83v17.82Zm0,4.72c0,.66-.24,1.23-.71,1.7s-1.04.71-1.7.71-1.23-.24-1.7-.71-.71-1.04-.71-1.7.24-1.22.71-1.69c.48-.47,1.04-.7,1.7-.7s1.23.24,1.7.7c.48.47.71,1.03.71,1.69Z"/>
    <path class="cls-7" d="m845.35,257.63h-13.75c-2.56,0-3.85-1.18-3.85-3.54v-7.1c0-2.34,1.28-3.52,3.85-3.52h5.91v-1.52h5.03v10.94h2.81v4.72Zm-7.84-4.72v-4.81h-3.67c-.83,0-1.25.38-1.25,1.14v2.5c0,.78.42,1.16,1.25,1.16h3.67Z"/>
    <path class="cls-7" d="m856.05,257.63h-11.97v-4.72h11.97v4.72Z"/>
    <path class="cls-7" d="m867.77,257.63h-13.23v-4.72h5.47v-9.38h4.81v9.38h2.94v4.72Zm-3.08,4.97c0,.67-.23,1.25-.7,1.71s-1.04.7-1.71.7-1.22-.24-1.69-.71c-.47-.48-.7-1.04-.7-1.7s.23-1.23.7-1.7c.47-.48,1.03-.71,1.69-.71s1.25.23,1.71.7.7,1.04.7,1.71Z"/>
    <path class="cls-7" d="m878.49,257.63h-11.98v-4.72h11.98v4.72Z"/>
    <path class="cls-7" d="m908.94,257.63h-31.95v-4.72h5.58v-9.43h4.83v9.43h4.35v-9.43h4.81v9.43h4.44v-9.43h4.83v9.43h3.1v4.72Z"/>
    <path class="cls-7" d="m919.62,257.63h-11.98v-4.72h11.98v4.72Z"/>
    <path class="cls-7" d="m940.85,257.63h-22.72v-4.72h14.88v-2.55c0-1.42-.7-2.13-2.11-2.13h-8.22v-4.7h11.47c2.56,0,3.85,1.19,3.85,3.56v5.82h2.86v4.72Zm-10.39,4.94c0,.66-.24,1.23-.71,1.7s-1.04.71-1.7.71-1.23-.24-1.7-.71c-.48-.48-.71-1.04-.71-1.7s.24-1.23.71-1.7c.48-.48,1.04-.71,1.7-.71s1.23.24,1.7.71.71,1.04.71,1.7Zm2.77,4.33c0,.66-.24,1.23-.71,1.7-.48.48-1.04.71-1.7.71s-1.22-.24-1.69-.71c-.47-.48-.7-1.04-.7-1.7s.23-1.23.7-1.7c.47-.48,1.03-.71,1.69-.71s1.23.24,1.7.71c.48.48.71,1.04.71,1.7Zm2.72-4.33c0,.66-.24,1.23-.71,1.7s-1.04.71-1.7.71-1.23-.24-1.7-.71c-.48-.48-.71-1.04-.71-1.7s.24-1.23.71-1.7c.48-.48,1.04-.71,1.7-.71s1.23.24,1.7.71.71,1.04.71,1.7Z"/>
    <path class="cls-7" d="m952.78,257.63h-13.23v-4.72h5.47v-9.38h4.81v9.38h2.94v4.72Zm-5.82,4.9c0,.66-.23,1.23-.7,1.7-.47.48-1.03.71-1.69.71s-1.22-.24-1.69-.71c-.47-.48-.7-1.04-.7-1.7s.23-1.23.7-1.7c.47-.48,1.03-.71,1.69-.71s1.22.24,1.69.71c.47.48.7,1.04.7,1.7Zm5.49,0c0,.67-.23,1.24-.7,1.71s-1.04.7-1.71.7-1.22-.24-1.68-.71c-.46-.48-.69-1.04-.69-1.7s.23-1.23.69-1.7c.46-.48,1.02-.71,1.68-.71s1.25.23,1.71.7.7,1.04.7,1.71Z"/>
    <path class="cls-7" d="m963.5,257.63h-11.97v-4.72h11.97v4.72Z"/>
    <path class="cls-7" d="m985.3,257.63h-23.33v-4.72h5.62v-9.4h10.94c2.58,0,3.87,1.18,3.87,3.55v5.86h2.9v4.72Zm-7.84-5.89v-2.38c0-.77-.42-1.15-1.25-1.15h-3.65v4.7h3.65c.83,0,1.25-.39,1.25-1.17Z"/>
    <path class="cls-7" d="m994.31,252.86c0,3.18-1.63,4.77-4.9,4.77h-5.41v-4.72h2.46c1.16.02,1.88-.04,2.15-.18.59-.26.88-.92.88-1.98v-7.23h4.81v9.34Zm-.22-13.73c0,.66-.24,1.23-.71,1.7-.48.48-1.04.71-1.7.71s-1.23-.24-1.7-.71c-.48-.48-.71-1.04-.71-1.7s.24-1.22.71-1.69c.48-.47,1.04-.7,1.7-.7s1.23.24,1.7.7c.48.47.71,1.03.71,1.69Z"/>
    <path class="cls-7" d="m1026.94,257.63h-2.88c0,2.68-.91,5-2.72,6.94-1.86,1.99-4.12,2.99-6.79,2.99s-4.97-.92-6.88-2.77-2.86-4.1-2.86-6.77v-14.5h4.83v14.37c0,1.33.46,2.46,1.4,3.39.93.93,2.06,1.4,3.39,1.4s2.47-.46,3.41-1.4c.94-.93,1.41-2.06,1.41-3.39v-14.39h4.81v9.4h2.88v4.72Zm-10-18.5c0,.66-.24,1.23-.71,1.7-.48.48-1.04.71-1.7.71s-1.23-.24-1.7-.71-.71-1.04-.71-1.7.24-1.22.71-1.69c.48-.47,1.04-.7,1.7-.7s1.23.24,1.7.7c.48.47.71,1.03.71,1.69Z"/>
    <path class="cls-7" d="m1037.62,257.63h-11.98v-4.72h11.98v4.72Z"/>
    <path class="cls-7" d="m1048.07,257.63h-11.98v-4.72h11.98v4.72Z"/>
    <path class="cls-7" d="m1056.84,252.86c0,3.18-1.63,4.77-4.9,4.77h-5.41v-4.72h2.46c1.16.02,1.88-.04,2.15-.18.59-.26.88-.92.88-1.98v-7.23h4.81v9.34Zm-2.66,9.71c0,.66-.23,1.23-.7,1.7-.47.48-1.03.71-1.69.71s-1.22-.24-1.69-.71c-.47-.48-.7-1.04-.7-1.7s.23-1.23.7-1.7c.47-.48,1.03-.71,1.69-.71s1.22.24,1.69.71c.47.48.7,1.04.7,1.7Zm5.49,0c0,.67-.23,1.25-.7,1.71-.47.47-1.04.7-1.71.7s-1.22-.24-1.68-.71c-.46-.48-.69-1.04-.69-1.7s.23-1.23.69-1.7c.46-.48,1.02-.71,1.68-.71s1.25.23,1.71.7c.47.47.7,1.04.7,1.71Z"/>
    <path class="cls-7" d="m1074.77,257.63h-2.9v5.21c0,1.41-.38,2.54-1.14,3.41-.81.88-1.9,1.32-3.3,1.32h-6.75v-4.99h4.17c1.44-.01,2.15-.87,2.15-2.57v-16.5h4.86v9.4h2.9v4.72Z"/>
    <path class="cls-7" d="m1085.47,257.63h-11.98v-4.72h11.98v4.72Z"/>
    <path class="cls-7" d="m1095.93,257.63h-11.98v-4.72h11.98v4.72Z"/>
    <path class="cls-7" d="m1104.7,252.86c0,3.18-1.63,4.77-4.9,4.77h-5.41v-4.72h2.46c1.16.02,1.88-.04,2.15-.18.59-.26.88-.92.88-1.98v-7.23h4.81v9.34Zm-2.5-13.65c0,.66-.23,1.23-.7,1.7-.47.48-1.03.71-1.69.71s-1.22-.24-1.69-.71c-.47-.48-.7-1.04-.7-1.7s.23-1.23.7-1.7c.47-.48,1.03-.71,1.69-.71s1.22.24,1.69.71c.47.48.7,1.04.7,1.7Zm5.49,0c0,.67-.23,1.25-.7,1.71s-1.04.7-1.71.7-1.22-.24-1.68-.71c-.46-.48-.69-1.04-.69-1.7s.23-1.23.69-1.7c.46-.48,1.02-.71,1.68-.71s1.25.23,1.71.7.7,1.04.7,1.71Z"/>
    <path class="cls-7" d="m1119.16,257.63h-3.74c-3.22,0-4.83-1.56-4.83-4.68v-20.28h4.83v18.11c0,1.42.81,2.13,2.44,2.13h1.3v4.72Z"/>
    <path class="cls-7" d="m1129.83,257.63h-11.97v-4.72h11.97v4.72Z"/>
    <path class="cls-7" d="m1140.29,257.63h-11.97v-4.72h11.97v4.72Z"/>
    <path class="cls-7" d="m1169.54,257.63h-30.98v-4.72h25.93v-2.59c0-1.11-.22-1.77-.66-1.96-.29-.13-.78-.2-1.45-.2h-13.93c-1.33,0-2.29-.25-2.88-.75-.66-.54-.99-1.46-.99-2.77v-10.74h24.96v4.72h-19.93v2.75c0,.97.13,1.58.4,1.82.22.21.79.31,1.71.31h13.91c2.61,0,3.91,1.17,3.91,3.52v10.61Z"/>
    <path class="cls-7" d="m1199.31,257.63c0,2.68-.91,5-2.72,6.94-1.86,1.99-4.12,2.99-6.79,2.99s-4.97-.92-6.88-2.77c-1.91-1.85-2.86-4.1-2.86-6.77v-14.5h4.83v14.37c0,1.33.47,2.46,1.4,3.39s2.06,1.4,3.4,1.4,2.47-.46,3.41-1.4c.94-.93,1.41-2.06,1.41-3.39v-14.39h4.81v14.13Zm-7.12-18.5c0,.66-.24,1.23-.71,1.7s-1.04.71-1.7.71-1.23-.24-1.7-.71-.71-1.04-.71-1.7.24-1.22.71-1.69c.48-.47,1.04-.7,1.7-.7s1.23.24,1.7.7c.48.47.71,1.03.71,1.69Z"/>
    <path class="cls-7" d="m1217.99,262.86c0,3.13-1.54,4.7-4.63,4.7h-10.16v-4.7h8.21c1.12,0,1.68-.55,1.68-1.65v-3.58h-6.06c-2.55,0-3.83-1.17-3.83-3.52v-7.08c0-2.36,1.28-3.54,3.85-3.54h7.1c2.56,0,3.84,1.18,3.84,3.54v15.82Zm-4.9-11.14v-2.37c0-.76-.43-1.14-1.28-1.14h-2.48c-.86,0-1.3.38-1.3,1.14v2.37c0,.79.43,1.19,1.3,1.19h2.48c.85,0,1.28-.39,1.28-1.19Z"/>
    <path class="cls-7" d="m1238.66,257.63h-16.74v-4.72h8.9v-2.59c0-1.42-.7-2.13-2.11-2.13h-6.79v-4.68h10.04c2.56,0,3.85,1.18,3.85,3.54v5.87h2.86v4.72Z"/>
    <path class="cls-7" d="m1249.34,257.63h-11.97v-4.72h11.97v4.72Z"/>
    <path class="cls-7" d="m1258.13,252.86c0,3.18-1.63,4.77-4.9,4.77h-5.4v-4.72h2.46c1.16.02,1.87-.04,2.15-.18.59-.26.88-.92.88-1.98v-7.23h4.81v9.34Zm0,9.67c0,.67-.23,1.24-.7,1.71s-1.04.7-1.71.7-1.22-.24-1.69-.71c-.47-.48-.7-1.04-.7-1.7s.23-1.23.7-1.7c.47-.48,1.03-.71,1.69-.71s1.25.23,1.71.7.7,1.04.7,1.71Z"/>
    <path class="cls-7" d="m1290.48,248.18h-5.12c-1.41,0-2.11.71-2.11,2.13v2.64h3.69c1.42,0,2.13.84,2.13,2.53v2.15c0,2.71-1.06,5.05-3.19,7.03-2.07,1.93-4.47,2.9-7.21,2.9-2.94,0-5.33-.85-7.14-2.55-1.88-1.73-2.81-4.06-2.81-7v-14.53h4.83v14.4c0,1.56.49,2.76,1.47,3.61.94.79,2.19,1.19,3.76,1.19s2.97-.43,4.09-1.3c1.22-.94,1.82-2.19,1.82-3.76h-2.42c-2.58,0-3.87-1.18-3.87-3.54v-7.05c0-2.37,1.29-3.56,3.87-3.56h8.2v4.7Z"/>
    <path class="cls-7" d="m1302.94,257.63h-3.74c-3.22,0-4.83-1.56-4.83-4.68v-20.28h4.83v18.11c0,1.42.81,2.13,2.44,2.13h1.3v4.72Z"/>
    <path class="cls-7" d="m1313.61,257.63h-11.97v-4.72h11.97v4.72Z"/>
    <path class="cls-7" d="m1324.07,257.63h-11.97v-4.72h11.97v4.72Z"/>
    <path class="cls-7" d="m1342.53,257.63h-19.93v-4.75h14.88v-2.57c0-1.42-.7-2.13-2.11-2.13h-8.22v-4.7h11.51c2.58,0,3.87,1.19,3.87,3.56v10.59Zm-7.6,4.94c0,.66-.24,1.23-.71,1.7s-1.04.71-1.7.71-1.23-.24-1.7-.71-.71-1.04-.71-1.7.24-1.23.71-1.7,1.04-.71,1.7-.71,1.23.24,1.7.71.71,1.04.71,1.7Zm2.77,4.33c0,.66-.24,1.23-.71,1.7-.48.48-1.04.71-1.7.71s-1.22-.24-1.69-.71c-.47-.48-.7-1.04-.7-1.7s.23-1.23.7-1.7c.47-.48,1.03-.71,1.69-.71s1.23.24,1.7.71c.48.48.71,1.04.71,1.7Zm2.72-4.33c0,.66-.24,1.23-.71,1.7s-1.04.71-1.7.71-1.23-.24-1.7-.71-.71-1.04-.71-1.7.24-1.23.71-1.7,1.04-.71,1.7-.71,1.23.24,1.7.71.71,1.04.71,1.7Z"/>
  </g>
  <path class="cls-8" d="m596.84,422.44c1.99-.51,3.93-1.02,5.84-1.53-1.47-.13-2.95-.27-4.42-.44-.31.75-.78,1.44-1.42,1.97Z"/>
  <g id="SVGRepo_iconCarrier" data-name="SVGRepo iconCarrier" class="cls-5">
    <path class="cls-1" d="m622.83,370.07c-57.15,0-103.64-43.33-103.64-96.6s46.49-96.6,103.64-96.6,103.64,43.33,103.64,96.6-46.49,96.6-103.64,96.6Z"/>
    <path class="cls-4" d="m622.83,179.98c55.3,0,100.3,41.94,100.3,93.49s-44.99,93.49-100.3,93.49-100.3-41.94-100.3-93.49,44.99-93.49,100.3-93.49m0-6.23c-59.09,0-106.98,44.65-106.98,99.72s47.9,99.72,106.98,99.72,106.98-44.65,106.98-99.72-47.9-99.72-106.98-99.72h0Z"/>
    <ellipse class="cls-3" cx="622.83" cy="273.47" rx="90.4" ry="84.26"/>
    <g>
      <path class="cls-1" d="m564.9,287.94c0-2.17.32-4.53.96-7.09h7.76v5.01c0,2.91.45,5,1.36,6.29.91,1.27,2.4,1.91,4.48,1.91s3.58-.7,4.45-2.11c.87-1.41,1.31-3.44,1.31-6.09v-11.82c0-1.53-.14-2.76-.42-3.7s-.67-1.68-1.15-2.22c-.49-.54-1.06-.9-1.71-1.09-.65-.19-1.36-.29-2.13-.29-1.43,0-2.66.38-3.69,1.13s-1.87,1.65-2.54,2.7h-7.34v-31.22h28.2v8.2h-19.9v15.11c1.07-1.15,2.43-2.04,4.05-2.69,1.62-.64,3.32-.97,5.09-.97,4.07,0,7.05,1.27,8.95,3.83,1.9,2.55,2.85,6.31,2.85,11.28v10.38c0,3.15-.44,5.78-1.31,7.89-.87,2.11-2.02,3.81-3.46,5.09-1.44,1.28-3.09,2.19-4.97,2.74-1.88.55-3.82.82-5.82.82-2.44,0-4.58-.31-6.46-.91-1.87-.61-3.44-1.49-4.7-2.63-1.27-1.15-2.23-2.53-2.88-4.14-.65-1.61-.98-3.42-.98-5.43Z"/>
      <path class="cls-1" d="m603.66,256.82c0-2.67.26-4.98.79-6.93.52-1.94,1.21-3.58,2.07-4.9.86-1.33,1.85-2.4,2.98-3.2,1.13-.81,2.29-1.44,3.48-1.88,1.19-.44,2.38-.73,3.57-.88,1.19-.14,2.29-.22,3.28-.22s2,.07,3.17.2c1.17.13,2.34.41,3.54.82,1.19.42,2.34,1.03,3.46,1.83,1.11.8,2.1,1.87,2.96,3.2.86,1.34,1.55,2.99,2.07,4.94s.79,4.3.79,7.02v25.85c0,2.67-.26,4.98-.79,6.93-.52,1.95-1.22,3.6-2.09,4.96-.87,1.36-1.87,2.46-3,3.31-1.13.85-2.28,1.5-3.46,1.97s-2.35.78-3.51.95c-1.17.17-2.21.25-3.13.25-1.03,0-2.14-.08-3.34-.25s-2.41-.48-3.61-.95-2.36-1.11-3.48-1.95c-1.11-.84-2.09-1.93-2.94-3.29s-1.52-3.02-2.03-4.98c-.51-1.96-.77-4.27-.77-6.95v-25.85h0Zm10.18,29.75c0,2.53.49,4.37,1.48,5.52s2.49,1.72,4.52,1.72,3.44-.57,4.42-1.72c.97-1.14,1.46-2.98,1.46-5.52v-33.12c0-2.67-.49-4.62-1.46-5.84-.98-1.22-2.44-1.83-4.42-1.83s-3.53.61-4.52,1.83-1.48,3.17-1.48,5.84v33.12h0Z"/>
      <path class="cls-1" d="m653.89,265.7c-1.11,0-2.23-.15-3.36-.44s-2.14-.86-3.05-1.71c-.91-.85-1.64-2.05-2.21-3.61-.57-1.55-.85-3.6-.85-6.14v-2.92c0-1.66.14-3.09.41-4.31.27-1.21.65-2.25,1.13-3.1.48-.85,1.03-1.55,1.66-2.08.63-.53,1.29-.94,1.99-1.23.71-.29,1.42-.49,2.16-.6.74-.11,1.45-.17,2.16-.17.67,0,1.36.05,2.08.15.72.1,1.43.3,2.13.59.69.29,1.35.7,1.98,1.22.63.52,1.17,1.21,1.64,2.06s.84,1.89,1.11,3.12.41,2.67.41,4.35v2.92c0,2.5-.3,4.52-.91,6.08-.61,1.56-1.37,2.77-2.3,3.62-.93.86-1.95,1.44-3.05,1.74-1.11.3-2.15.45-3.13.45Zm.06-4.34c1.23,0,2.09-.5,2.58-1.49.49-.99.73-2.53.73-4.63v-5.3c0-2.11-.24-3.67-.73-4.67-.49-1-1.35-1.5-2.58-1.5s-2.19.5-2.71,1.5c-.52,1-.78,2.56-.78,4.67v5.3c0,2.1.26,3.64.78,4.63.51,1,1.42,1.49,2.71,1.49Zm17.71-21.37h5.31l-13.46,47.2h-5.34l13.49-47.2Zm.06,32.8c0-2.5.3-4.5.9-6,.6-1.5,1.36-2.66,2.29-3.47.93-.81,1.95-1.35,3.06-1.61s2.19-.4,3.23-.4c.66,0,1.36.05,2.08.15.73.1,1.43.3,2.13.59.7.29,1.35.7,1.98,1.22.63.52,1.17,1.21,1.64,2.06s.84,1.89,1.11,3.12.41,2.67.41,4.35v2.92c0,1.68-.14,3.13-.42,4.37s-.66,2.3-1.14,3.17-1.03,1.6-1.65,2.16c-.63.57-1.29,1.01-1.98,1.34-.7.33-1.4.55-2.13.67-.72.12-1.41.18-2.05.18-.75,0-1.49-.06-2.24-.18-.76-.12-1.47-.33-2.17-.64-.69-.31-1.35-.74-1.96-1.31-.62-.56-1.15-1.28-1.6-2.16-.45-.88-.81-1.94-1.07-3.18-.26-1.25-.4-2.72-.4-4.42v-2.93h0Zm6.01,4.34c0,2.1.26,3.64.78,4.63.52.99,1.42,1.49,2.71,1.49s2.09-.5,2.58-1.49c.49-.99.74-2.53.74-4.63v-5.3c0-2.11-.24-3.67-.74-4.67-.49-1-1.35-1.5-2.58-1.5-1.29,0-2.19.5-2.71,1.5-.52,1-.78,2.56-.78,4.67v5.3Z"/>
    </g>
  </g>
  <g>
    <path class="cls-8" d="m712.45,167.83h-18.59c-4.56,0-6.84-2.08-6.84-6.25v-12.58c0-4.22,2.28-6.33,6.84-6.33h18.59v25.16Zm-8.09-8.4v-8.36h-6.52c-1.48,0-2.23.68-2.23,2.03v4.22c0,1.41.74,2.11,2.23,2.11h6.52Z"/>
    <path class="cls-8" d="m749.21,167.83h-29.77v-8.4h15.82v-4.61c0-2.53-1.25-3.79-3.75-3.79h-12.07v-8.32h17.85c4.56,0,6.84,2.1,6.84,6.29v10.43h5.08v8.4Z"/>
    <path class="cls-8" d="m765.22,159.35c0,5.65-2.9,8.48-8.71,8.48h-9.61v-8.4h4.38c2.06.03,3.33-.08,3.83-.31,1.04-.47,1.56-1.64,1.56-3.52v-12.85h8.55v16.6Zm-.39-24.41c0,1.17-.42,2.18-1.27,3.03s-1.86,1.27-3.03,1.27-2.18-.42-3.03-1.27c-.85-.85-1.27-1.86-1.27-3.03s.42-2.17,1.27-3.01c.85-.83,1.86-1.25,3.03-1.25s2.18.42,3.03,1.25c.85.83,1.27,1.84,1.27,3.01Z"/>
    <path class="cls-8" d="m833.7,167.83h-41.09c-5.81,0-8.71-2.81-8.71-8.44v-16.64h8.59v12.81c0,1.93.4,3.1,1.21,3.52.47.23,1.9.35,4.3.35h21.91v-16.68h8.55v16.68h5.23v8.4Zm-27.62-32.73c0,1.17-.42,2.18-1.25,3.03-.83.85-1.84,1.27-3.01,1.27s-2.17-.42-3.01-1.27c-.83-.85-1.25-1.86-1.25-3.03s.42-2.18,1.25-3.03c.83-.85,1.84-1.27,3.01-1.27s2.17.42,3.01,1.27c.83.85,1.25,1.86,1.25,3.03Zm9.77,0c0,1.2-.42,2.21-1.25,3.05s-1.85,1.25-3.05,1.25-2.17-.42-2.99-1.27c-.82-.85-1.23-1.86-1.23-3.03s.41-2.18,1.23-3.03c.82-.85,1.82-1.27,2.99-1.27s2.21.42,3.05,1.25c.83.83,1.25,1.85,1.25,3.05Z"/>
    <path class="cls-8" d="m882.3,159.43c0,5.6-2.9,8.4-8.71,8.4h-42.23v-8.4h9.61v-16.68h8.59v16.68h7.7v-16.68h8.59v16.68h4.06c2.55,0,3.83-1.28,3.83-3.83v-12.85h8.55v16.68Z"/>
    <path class="cls-8" d="m913.94,167.83h-24.69v-8.4h15.82v-4.61c0-2.53-1.25-3.79-3.75-3.79h-12.07v-8.32h17.85c4.56,0,6.84,2.1,6.84,6.29v18.83Z"/>
    <path class="cls-8" d="m950.38,177.08c0,2.5-.68,4.52-2.03,6.05-1.43,1.56-3.39,2.34-5.86,2.34h-11.99v-8.87h7.45c2.56-.03,3.84-1.55,3.84-4.57v-29.34h8.59v34.38Zm0-41.95c0,1.17-.42,2.18-1.27,3.03s-1.86,1.27-3.03,1.27-2.18-.42-3.03-1.27c-.85-.85-1.27-1.86-1.27-3.03s.42-2.17,1.27-3.01c.85-.83,1.86-1.25,3.03-1.25s2.18.42,3.03,1.25c.85.83,1.27,1.84,1.27,3.01Z"/>
    <path class="cls-8" d="m965.89,167.83h-8.59v-44.38h8.59v44.38Z"/>
    <path class="cls-8" d="m1010.93,177.12c0,5.57-2.74,8.36-8.23,8.36h-18.06v-8.36h14.59c1.99,0,2.99-.98,2.99-2.93v-6.37h-10.77c-4.54,0-6.81-2.08-6.81-6.25v-12.58c0-4.19,2.28-6.29,6.84-6.29h12.62c4.56,0,6.84,2.1,6.84,6.3v28.12Zm-8.71-19.8v-4.22c0-1.35-.76-2.03-2.27-2.03h-4.41c-1.54,0-2.3.68-2.3,2.03v4.22c0,1.41.77,2.11,2.3,2.11h4.41c1.51,0,2.27-.7,2.27-2.11Z"/>
    <path class="cls-8" d="m1035.58,177.08c0,2.5-.68,4.52-2.03,6.05-1.43,1.56-3.39,2.34-5.86,2.34h-11.99v-8.87h7.42c2.55-.03,3.83-1.55,3.83-4.57v-29.34h8.63v34.38Z"/>
    <path class="cls-8" d="m1057.72,167.83h-6.64c-5.73,0-8.59-2.77-8.59-8.32v-36.05h8.59v32.19c0,2.53,1.45,3.79,4.34,3.79h2.3v8.4Z"/>
    <path class="cls-8" d="m1091.75,161.5c0,4.22-2.29,6.33-6.88,6.33h-29.45v-8.4h10v-16.72h19.45c4.58,0,6.88,2.1,6.88,6.29v12.5Zm-8.79-4.15v-4.24c0-1.36-.74-2.04-2.23-2.04h-6.48v8.36h6.48c1.48,0,2.23-.69,2.23-2.08Z"/>
    <path class="cls-8" d="m1135.89,167.83h-18.59c-4.56,0-6.84-2.08-6.84-6.25v-12.58c0-4.22,2.28-6.33,6.84-6.33h18.59v25.16Zm-8.09-8.4v-8.36h-6.52c-1.48,0-2.23.68-2.23,2.03v4.22c0,1.41.74,2.11,2.23,2.11h6.52Z"/>
    <path class="cls-8" d="m1165.77,167.83h-5.23v9.26c0,2.5-.68,4.52-2.03,6.05-1.43,1.56-3.39,2.34-5.86,2.34h-11.99v-8.87h7.47c2.57-.03,3.86-1.55,3.86-4.57v-29.34h8.55v16.72h5.23v8.4Zm-10.16-32.73c0,1.17-.42,2.18-1.27,3.03s-1.86,1.27-3.03,1.27-2.17-.42-3.01-1.27c-.83-.85-1.25-1.86-1.25-3.03s.42-2.18,1.25-3.03c.83-.85,1.84-1.27,3.01-1.27s2.18.42,3.03,1.27c.85.85,1.27,1.86,1.27,3.03Zm4.92-7.73c0,1.2-.42,2.21-1.25,3.05s-1.85,1.25-3.05,1.25-2.17-.42-3.01-1.27c-.83-.85-1.25-1.86-1.25-3.03s.42-2.17,1.25-3.01,1.84-1.25,3.01-1.25,2.21.41,3.05,1.23c.83.82,1.25,1.83,1.25,3.03Zm4.8,7.73c0,1.17-.42,2.18-1.25,3.03-.83.85-1.84,1.27-3.01,1.27s-2.17-.42-3.01-1.27c-.83-.85-1.25-1.86-1.25-3.03s.42-2.18,1.25-3.03c.83-.85,1.84-1.27,3.01-1.27s2.17.42,3.01,1.27c.83.85,1.25,1.86,1.25,3.03Z"/>
    <path class="cls-8" d="m1181.75,159.35c0,5.65-2.9,8.48-8.71,8.48h-9.61v-8.4h4.38c2.06.03,3.33-.08,3.83-.31,1.04-.47,1.56-1.64,1.56-3.52v-12.85h8.55v16.6Zm-4.73,17.27c0,1.17-.42,2.18-1.25,3.03-.83.85-1.84,1.27-3.01,1.27s-2.17-.42-3.01-1.27c-.83-.85-1.25-1.86-1.25-3.03s.42-2.18,1.25-3.03c.83-.85,1.84-1.27,3.01-1.27s2.17.42,3.01,1.27c.83.85,1.25,1.86,1.25,3.03Zm9.77,0c0,1.2-.42,2.21-1.25,3.05-.83.83-1.85,1.25-3.05,1.25s-2.17-.42-2.99-1.27c-.82-.85-1.23-1.86-1.23-3.03s.41-2.18,1.23-3.03c.82-.85,1.82-1.27,2.99-1.27s2.21.42,3.05,1.25,1.25,1.85,1.25,3.05Z"/>
    <path class="cls-8" d="m1217.02,177.12c0,5.57-2.74,8.36-8.23,8.36h-18.06v-8.36h14.59c1.99,0,2.99-.98,2.99-2.93v-6.37h-10.77c-4.54,0-6.81-2.08-6.81-6.25v-12.58c0-4.19,2.28-6.29,6.84-6.29h12.62c4.56,0,6.84,2.1,6.84,6.3v28.12Zm-8.71-19.8v-4.22c0-1.35-.76-2.03-2.27-2.03h-4.41c-1.54,0-2.3.68-2.3,2.03v4.22c0,1.41.77,2.11,2.3,2.11h4.41c1.51,0,2.27-.7,2.27-2.11Z"/>
    <path class="cls-8" d="m1280.34,159.35c0,5.65-2.9,8.48-8.71,8.48h-27.15c-5.81,0-8.71-2.83-8.71-8.48v-16.6h8.59v12.85c0,1.9.51,3.07,1.52,3.52.47.21,1.8.31,3.98.31h16.52c2.08,0,3.36-.1,3.83-.31,1.04-.47,1.56-1.64,1.56-3.52v-12.85h8.55v16.6Zm-22.38-24.26c0,1.17-.42,2.18-1.25,3.03-.83.85-1.84,1.27-3.01,1.27s-2.17-.42-3.01-1.27c-.83-.85-1.25-1.86-1.25-3.03s.42-2.18,1.25-3.03c.83-.85,1.84-1.27,3.01-1.27s2.17.42,3.01,1.27c.83.85,1.25,1.86,1.25,3.03Zm9.77,0c0,1.2-.42,2.21-1.25,3.05s-1.85,1.25-3.05,1.25-2.17-.42-2.99-1.27c-.82-.85-1.23-1.86-1.23-3.03s.41-2.18,1.23-3.03c.82-.85,1.82-1.27,2.99-1.27s2.21.42,3.05,1.25c.83.83,1.25,1.85,1.25,3.05Z"/>
    <path class="cls-8" d="m1302.57,167.83h-6.64c-5.73,0-8.59-2.77-8.59-8.32v-36.05h8.59v32.19c0,2.53,1.45,3.79,4.34,3.79h2.3v8.4Z"/>
    <path class="cls-8" d="m1341.67,167.83h-41.41v-8.4h9.96v-10.43c0-4.22,2.28-6.33,6.84-6.33h12.58c4.58,0,6.88,2.11,6.88,6.33v10.43h5.16v8.4Zm-13.91-10.47v-4.26c0-1.35-.74-2.03-2.23-2.03h-4.41c-1.48,0-2.23.68-2.23,2.03v4.26c0,1.38.74,2.07,2.23,2.07h4.41c1.48,0,2.23-.69,2.23-2.07Zm-.16-22.46c0,1.17-.42,2.18-1.27,3.03s-1.86,1.27-3.03,1.27-2.18-.42-3.03-1.27c-.85-.85-1.27-1.86-1.27-3.03s.42-2.17,1.27-3.01c.85-.83,1.86-1.25,3.03-1.25s2.18.42,3.03,1.25c.85.83,1.27,1.84,1.27,3.01Z"/>
    <path class="cls-8" d="m1362.92,167.83h-23.52v-8.4h9.73v-16.68h8.55v16.68h5.23v8.4Zm-10.35,8.71c0,1.17-.42,2.18-1.25,3.03-.83.85-1.84,1.27-3.01,1.27s-2.17-.42-3.01-1.27c-.83-.85-1.25-1.86-1.25-3.03s.42-2.18,1.25-3.03c.83-.85,1.84-1.27,3.01-1.27s2.17.42,3.01,1.27c.83.85,1.25,1.86,1.25,3.03Zm9.77,0c0,1.2-.42,2.21-1.25,3.05-.83.83-1.85,1.25-3.05,1.25s-2.17-.42-2.99-1.27c-.82-.85-1.23-1.86-1.23-3.03s.41-2.18,1.23-3.03c.82-.85,1.82-1.27,2.99-1.27s2.21.42,3.05,1.25,1.25,1.85,1.25,3.05Z"/>
    <path class="cls-8" d="m1402.1,167.83h-41.41v-8.4h9.96v-10.43c0-4.22,2.28-6.33,6.84-6.33h12.58c4.58,0,6.88,2.11,6.88,6.33v10.43h5.16v8.4Zm-13.91-10.47v-4.26c0-1.35-.74-2.03-2.23-2.03h-4.41c-1.48,0-2.23.68-2.23,2.03v4.26c0,1.38.74,2.07,2.23,2.07h4.41c1.48,0,2.23-.69,2.23-2.07Zm-.16-22.46c0,1.17-.42,2.18-1.27,3.03s-1.86,1.27-3.03,1.27-2.18-.42-3.03-1.27c-.85-.85-1.27-1.86-1.27-3.03s.42-2.17,1.27-3.01c.85-.83,1.86-1.25,3.03-1.25s2.18.42,3.03,1.25c.85.83,1.27,1.84,1.27,3.01Z"/>
    <path class="cls-8" d="m1440.22,167.83h-40.39v-8.4h26.45v-4.53c0-2.53-1.25-3.79-3.75-3.79h-14.61v-8.36h20.39c4.56,0,6.84,2.11,6.84,6.33v10.35h5.08v8.4Zm-15.12-32.7c0,1.17-.42,2.18-1.27,3.03s-1.86,1.27-3.03,1.27-2.18-.42-3.03-1.27c-.85-.85-1.27-1.86-1.27-3.03s.42-2.17,1.27-3.01c.85-.83,1.86-1.25,3.03-1.25s2.18.42,3.03,1.25c.85.83,1.27,1.84,1.27,3.01Z"/>
    <path class="cls-8" d="m1456.16,159.35c0,5.65-2.9,8.48-8.71,8.48h-9.61v-8.4h4.38c2.06.03,3.33-.08,3.83-.31,1.04-.47,1.56-1.64,1.56-3.52v-12.85h8.55v16.6Zm-4.45-24.26c0,1.17-.42,2.18-1.25,3.03-.83.85-1.84,1.27-3.01,1.27s-2.17-.42-3.01-1.27c-.83-.85-1.25-1.86-1.25-3.03s.42-2.18,1.25-3.03c.83-.85,1.84-1.27,3.01-1.27s2.17.42,3.01,1.27c.83.85,1.25,1.86,1.25,3.03Zm9.77,0c0,1.2-.42,2.21-1.25,3.05s-1.85,1.25-3.05,1.25-2.17-.42-2.99-1.27c-.82-.85-1.23-1.86-1.23-3.03s.41-2.18,1.23-3.03c.82-.85,1.82-1.27,2.99-1.27s2.21.42,3.05,1.25c.83.83,1.25,1.85,1.25,3.05Z"/>
  </g>
</svg>