<svg width="76" height="81" viewBox="0 0 76 81" fill="none" xmlns="http://www.w3.org/2000/svg">
<path d="M18.525 57.7125C21.2167 55.5188 24.225 53.7891 27.55 52.5234C30.875 51.2578 34.3583 50.625 38 50.625C41.6417 50.625 45.125 51.2578 48.45 52.5234C51.775 53.7891 54.7833 55.5188 57.475 57.7125C59.3222 55.4062 60.7604 52.7906 61.7896 49.8656C62.8188 46.9406 63.3333 43.8187 63.3333 40.5C63.3333 33.0187 60.866 26.6484 55.9313 21.3891C50.9965 16.1297 45.0195 13.5 38 13.5C30.9806 13.5 25.0035 16.1297 20.0688 21.3891C15.134 26.6484 12.6667 33.0187 12.6667 40.5C12.6667 43.8187 13.1813 46.9406 14.2104 49.8656C15.2396 52.7906 16.6778 55.4062 18.525 57.7125ZM38 43.875C34.8861 43.875 32.2604 42.7359 30.1229 40.4578C27.9854 38.1797 26.9167 35.3813 26.9167 32.0625C26.9167 28.7437 27.9854 25.9453 30.1229 23.6672C32.2604 21.3891 34.8861 20.25 38 20.25C41.1139 20.25 43.7396 21.3891 45.8771 23.6672C48.0146 25.9453 49.0833 28.7437 49.0833 32.0625C49.0833 35.3813 48.0146 38.1797 45.8771 40.4578C43.7396 42.7359 41.1139 43.875 38 43.875ZM38 74.25C33.6195 74.25 29.5028 73.3641 25.65 71.5922C21.7972 69.8203 18.4458 67.4156 15.5958 64.3781C12.7458 61.3406 10.4896 57.7688 8.82709 53.6625C7.16459 49.5563 6.33334 45.1688 6.33334 40.5C6.33334 35.8312 7.16459 31.4438 8.82709 27.3375C10.4896 23.2312 12.7458 19.6594 15.5958 16.6219C18.4458 13.5844 21.7972 11.1797 25.65 9.40781C29.5028 7.63594 33.6195 6.75 38 6.75C42.3806 6.75 46.4972 7.63594 50.35 9.40781C54.2028 11.1797 57.5542 13.5844 60.4042 16.6219C63.2542 19.6594 65.5104 23.2312 67.1729 27.3375C68.8354 31.4438 69.6667 35.8312 69.6667 40.5C69.6667 45.1688 68.8354 49.5563 67.1729 53.6625C65.5104 57.7688 63.2542 61.3406 60.4042 64.3781C57.5542 67.4156 54.2028 69.8203 50.35 71.5922C46.4972 73.3641 42.3806 74.25 38 74.25Z" fill="#852221"/>
</svg>
