<svg width="46" height="46" viewBox="0 0 46 46" fill="none" xmlns="http://www.w3.org/2000/svg">
<path d="M28.1 10C30.0535 10.3811 31.8488 11.3365 33.2561 12.7439C34.6635 14.1512 35.6189 15.9465 36 17.9M28.1 2C32.1585 2.45087 35.9432 4.26835 38.8325 7.15402C41.7218 10.0397 43.544 13.822 44 17.88M42 33.84V39.84C42.0022 40.397 41.8882 40.9483 41.665 41.4587C41.4419 41.9691 41.1146 42.4272 40.7041 42.8037C40.2937 43.1803 39.8091 43.467 39.2815 43.6454C38.7538 43.8239 38.1947 43.8901 37.64 43.84C31.4857 43.1713 25.574 41.0683 20.38 37.7C15.5476 34.6293 11.4507 30.5323 8.37999 25.7C4.99994 20.4824 2.89647 14.542 2.23999 8.36C2.19001 7.80693 2.25574 7.24952 2.43299 6.72325C2.61024 6.19698 2.89513 5.71338 3.26952 5.30324C3.64391 4.89311 4.0996 4.56542 4.60757 4.34104C5.11554 4.11667 5.66467 4.00052 6.21999 4H12.22C13.1906 3.99045 14.1316 4.33416 14.8675 4.96707C15.6035 5.59997 16.0841 6.47889 16.22 7.44C16.4732 9.36013 16.9429 11.2455 17.62 13.06C17.8891 13.7758 17.9473 14.5538 17.7878 15.3018C17.6283 16.0497 17.2577 16.7362 16.72 17.28L14.18 19.82C17.0271 24.8271 21.1729 28.9729 26.18 31.82L28.72 29.28C29.2638 28.7423 29.9503 28.3717 30.6982 28.2122C31.4462 28.0527 32.2241 28.1109 32.94 28.38C34.7545 29.0571 36.6399 29.5268 38.56 29.78C39.5315 29.9171 40.4188 30.4064 41.0531 31.155C41.6873 31.9036 42.0243 32.8592 42 33.84Z" stroke="#384D26" stroke-width="4" stroke-linecap="round" stroke-linejoin="round"/>
</svg>
