<svg width="64" height="64" viewBox="0 0 64 64" fill="none" xmlns="http://www.w3.org/2000/svg">
<g clip-path="url(#clip0_5_1107)">
<path d="M29.8387 62.0817C26.4491 62.0817 23.897 59.3438 23.897 55.9556C23.897 52.5834 26.4491 50.031 29.8387 50.031C33.2109 50.031 35.9488 52.5834 35.9488 55.9556C35.9474 59.344 33.2096 62.0817 29.8387 62.0817Z" fill="#A91825" stroke="#A91825" stroke-width="0.00064"/>
<path d="M59.0536 39.2722C58.6795 40.848 58.5476 43.6099 57.5496 44.8868C56.9473 45.6575 56.0432 46.1381 54.8933 46.1381H20.5085C18.2929 46.1381 16.4927 44.3539 16.4927 42.134C16.4927 40.697 12.3765 20.2934 10.8219 12.6349C10.4987 11.0456 8.92002 9.74468 7.30019 9.73L4.0283 9.69864C-0.372334 9.69864 0.00821251 5.52309 0.00821251 5.52309C0.0936185 4.04939 0.595824 3.16976 1.2168 2.65154C2.46163 1.61332 5.27158 1.98252 6.85426 1.97986L9.71758 1.97452C14.6431 1.97452 16.5863 4.79047 17.3501 7.07419C17.8643 8.61261 18.1274 11.2411 18.4733 12.8251L23.3894 35.2506C23.7366 36.8346 25.3326 38.1182 26.9527 38.1182H49.4443C51.0656 38.1182 52.6497 36.8346 52.9822 35.2468L56.6535 17.7906C57.1277 15.7407 57.8915 14.7598 58.6743 14.343C60.1033 13.5771 63.0963 14.7056 63.6599 16.2235C64.496 18.4826 63.5276 22.3109 63.5276 22.3109C63.5276 22.3109 60.6496 32.5797 59.0536 39.2722Z" fill="#A91825" stroke="#A91825" stroke-width="0.00064"/>
<path d="M49.9051 62.0817C46.5289 62.0817 43.9781 59.3438 43.9781 55.9556C43.9781 52.5834 46.5291 50.031 49.9051 50.031C53.2773 50.031 56.027 52.5834 56.027 55.9556C56.0272 59.344 53.2773 62.0817 49.9051 62.0817Z" fill="#A91825" stroke="#A91825" stroke-width="0.00064"/>
<path d="M30.0444 34.1034C28.9359 34.1034 28.0372 33.2019 28.0372 32.0921C28.0372 30.9849 28.9362 30.0835 30.0444 30.0835C31.1556 30.0835 32.053 30.9849 32.053 32.0921C32.053 33.2022 31.1569 34.1034 30.0444 34.1034Z" fill="#A91825" stroke="#A91825" stroke-width="0.00064"/>
<path d="M38.0788 34.1034C36.9705 34.1034 36.0718 33.2019 36.0718 32.0921C36.0718 30.9849 36.9705 30.0835 38.0788 30.0835C39.1862 30.0835 40.0874 30.9849 40.0874 32.0921C40.0876 33.2022 39.1862 34.1034 38.0788 34.1034Z" fill="#A91825" stroke="#A91825" stroke-width="0.00064"/>
<path d="M46.111 34.1034C45.0012 34.1034 44.1024 33.2019 44.1024 32.0921C44.1024 30.9849 45.0012 30.0835 46.111 30.0835C47.2182 30.0835 48.1183 30.9849 48.1183 32.0921C48.1183 33.2022 47.218 34.1034 46.111 34.1034Z" fill="#A91825" stroke="#A91825" stroke-width="0.00064"/>
<path d="M26.027 26.0688C24.9212 26.0688 24.0171 25.1714 24.0171 24.0625C24.0171 22.9546 24.9212 22.053 26.027 22.053C27.1409 22.053 28.0383 22.9544 28.0383 24.0625C28.0372 25.1714 27.1395 26.0688 26.027 26.0688Z" fill="#A91825" stroke="#A91825" stroke-width="0.00064"/>
<path d="M34.0616 22.0544C35.1701 22.0544 36.0689 22.9539 36.0689 24.0624C36.0689 25.1713 35.1701 26.0703 34.0616 26.0703C32.952 26.0703 32.053 25.1713 32.053 24.0624C32.053 22.9539 32.952 22.0544 34.0616 22.0544Z" fill="#A91825" stroke="#A91825" stroke-width="0.00064"/>
<path d="M42.0949 22.0544C43.2034 22.0544 44.1022 22.9539 44.1022 24.0624C44.1022 25.1713 43.2034 26.0703 42.0949 26.0703C40.9851 26.0703 40.0863 25.1713 40.0863 24.0624C40.0863 22.9539 40.9851 22.0544 42.0949 22.0544Z" fill="#A91825" stroke="#A91825" stroke-width="0.00064"/>
<path d="M50.1268 22.0544C51.2351 22.0544 52.1339 22.9539 52.1339 24.0624C52.1339 25.1713 51.2351 26.0703 50.1268 26.0703C49.017 26.0703 48.1182 25.1713 48.1182 24.0624C48.1182 22.9539 49.017 22.0544 50.1268 22.0544Z" fill="#A91825" stroke="#A91825" stroke-width="0.00064"/>
<path d="M46.111 18.0384C45.0012 18.0384 44.1024 17.137 44.1024 16.0318C44.1024 14.9213 45.0012 14.0232 46.111 14.0232C47.2182 14.0232 48.1183 14.92 48.1183 16.0318C48.1183 17.137 47.218 18.0384 46.111 18.0384Z" fill="#A91825" stroke="#A91825" stroke-width="0.00064"/>
<path d="M38.0788 18.0384C36.9705 18.0384 36.0718 17.137 36.0718 16.0318C36.0718 14.9213 36.9705 14.0232 38.0788 14.0232C39.1862 14.0232 40.0874 14.92 40.0874 16.0318C40.0876 17.137 39.1862 18.0384 38.0788 18.0384Z" fill="#A91825" stroke="#A91825" stroke-width="0.00064"/>
<path d="M30.0444 18.0384C28.9359 18.0384 28.0372 17.137 28.0372 16.0318C28.0372 14.9213 28.9362 14.0232 30.0444 14.0232C31.1556 14.0232 32.053 14.92 32.053 16.0318C32.053 17.137 31.1569 18.0384 30.0444 18.0384Z" fill="#A91825" stroke="#A91825" stroke-width="0.00064"/>
</g>
<defs>
<clipPath id="clip0_5_1107">
<rect width="64" height="64" fill="white"/>
</clipPath>
</defs>
</svg>
