<svg width="175" height="132" viewBox="0 0 175 132" fill="none" xmlns="http://www.w3.org/2000/svg">
<path d="M18.3113 79.0542H114.341V89.0177H44.4769C42.3935 84.7261 36.9008 81.6507 30.4652 81.6507C24.1259 81.6507 18.7014 84.6355 16.548 88.8287C15.2237 88.542 14.0594 87.9403 13.2305 87.1142C12.4017 86.2881 11.9532 85.2824 11.9527 84.2485V83.8247C11.9525 83.1983 12.1168 82.578 12.4362 81.9992C12.7557 81.4204 13.224 80.8945 13.8145 80.4515C14.4049 80.0085 15.106 79.6571 15.8776 79.4174C16.6491 79.1776 17.4761 79.0542 18.3113 79.0542ZM41.0658 91.7204C41.0621 93.9266 39.8918 96.0416 37.8118 97.6015C35.7317 99.1614 32.9116 100.039 29.9702 100.041C23.8547 100.041 18.8763 96.3085 18.8763 91.7204C18.8763 87.1323 23.8547 83.3983 29.9702 83.3983C32.9119 83.4007 35.7322 84.2783 37.8124 85.8385C39.8925 87.3986 41.0625 89.514 41.0658 91.7204ZM37.6722 91.7204C37.6699 90.1888 36.8577 88.7205 35.4138 87.6375C33.9699 86.5545 32.0122 85.9453 29.9702 85.9436C25.7229 85.9436 22.2699 88.5362 22.2699 91.7204C22.2699 94.9047 25.7247 97.4959 29.9702 97.4959C32.0121 97.4949 33.9701 96.8861 35.4142 95.8032C36.8582 94.7204 37.6703 93.252 37.6722 91.7204ZM153.206 91.7204C153.206 96.3085 148.228 100.041 142.111 100.041C135.993 100.041 131.017 96.3085 131.017 91.7204C131.017 87.1323 135.993 83.3983 142.111 83.3983C148.228 83.3983 153.206 87.1323 153.206 91.7204ZM149.814 91.7204C149.814 88.5348 146.358 85.9436 142.112 85.9436C137.867 85.9436 134.412 88.5362 134.412 91.7204C134.412 94.9047 137.867 97.4959 142.112 97.4959C146.358 97.4959 149.814 94.906 149.814 91.7204ZM169.387 67.8181V86.6324C169.387 87.5102 168.437 88.2226 167.267 88.2226H156.183C153.836 84.3508 148.637 81.6494 142.606 81.6494C136.574 81.6494 131.374 84.3508 129.026 88.2226H121.548C120.986 88.2226 120.446 88.0551 120.049 87.7568C119.651 87.4586 119.428 87.0542 119.428 86.6324V48.8451C119.428 47.966 120.378 47.2549 121.548 47.2549H149.459C150.63 47.2549 152.41 47.5475 153.7 48.8451L169.387 67.8181ZM159.495 63.684L149.956 51.8115C149.22 50.7895 148.314 50.2227 145.079 50.2227H127.767C126.596 50.2227 125.646 50.9338 125.646 51.8115V63.684C125.646 64.563 126.596 65.2741 127.767 65.2741H157.375C158.545 65.2741 159.495 64.563 159.495 63.684ZM167.76 81.7557C167.76 81.3621 167.552 80.9847 167.181 80.7064C166.81 80.4281 166.306 80.2718 165.782 80.2718C165.257 80.2718 164.754 80.4281 164.383 80.7064C164.012 80.9847 163.803 81.3621 163.803 81.7557V84.566C163.803 84.9596 164.012 85.337 164.383 85.6153C164.754 85.8935 165.257 86.0499 165.782 86.0499C166.306 86.0499 166.81 85.8935 167.181 85.6153C167.552 85.337 167.76 84.9596 167.76 84.566V81.7557ZM5.53987 76.2071H114.341V31.1604H5.53987V76.2071Z" fill="#384D26" stroke="#384D26" stroke-width="0.00064"/>
</svg>
